<?xml version="1.0" encoding="UTF-8" standalone="no"?>
<svg
   version="1.0"
   width="368.7388pt"
   height="384.57767pt"
   viewBox="0 0 368.7388 384.57767"
   preserveAspectRatio="xMidYMid"
   id="svg214"
   sodipodi:docname="shortcut_icon.svg"
   inkscape:version="1.2 (dc2aedaf03, 2022-05-15)"
   inkscape:export-filename="shortcut_icon.png"
   inkscape:export-xdpi="96"
   inkscape:export-ydpi="96"
   xmlns:inkscape="http://www.inkscape.org/namespaces/inkscape"
   xmlns:sodipodi="http://sodipodi.sourceforge.net/DTD/sodipodi-0.dtd"
   xmlns="http://www.w3.org/2000/svg"
   xmlns:svg="http://www.w3.org/2000/svg">
  <defs
     id="defs218" />
  <sodipodi:namedview
     id="namedview216"
     pagecolor="#ffffff"
     bordercolor="#666666"
     borderopacity="1.0"
     inkscape:showpageshadow="2"
     inkscape:pageopacity="0.0"
     inkscape:pagecheckerboard="true"
     inkscape:deskcolor="#d1d1d1"
     inkscape:document-units="pt"
     showgrid="true"
     inkscape:zoom="1.0637676"
     inkscape:cx="20.211182"
     inkscape:cy="218.09275"
     inkscape:window-width="3840"
     inkscape:window-height="2097"
     inkscape:window-x="-8"
     inkscape:window-y="-8"
     inkscape:window-maximized="1"
     inkscape:current-layer="svg214"
     inkscape:lockguides="false" />
  <rect
     style="display:inline;fill:#ddb989;stroke:none;stroke-width:4.5;fill-opacity:1"
     id="rect14414"
     width="368.7388"
     height="384.57767"
     x="0"
     y="0"
     inkscape:label="rect14414" />
  <path
     d="m 222.6,1.0465999 c -4.3,2 -10.2,8.9 -11.4,13.4000001 -2.8,9.8 -0.3,22.7 6.3,32.6 4.8,7.2 10.4,12.2 21.3,19.3 10.6,6.8 16.7,11.7 19.4,15.6 2,2.7 2,3 0.4,4.8 -2.9,3.2 -9.5,4 -35.2,4 -13.6,0 -43.4,0.5 -66.1,1 -52,1.3 -60.5,2.7 -84.3,14.4 -27.5,13.6 -50.8,40.2 -63.8,72.9 -6.4,16.1 -9.2,32.3 -9.2,53.3 0.1,17.7 1,25.4 5.1,40.3 5.6,20.5 13.4,36 26.9,52.9 18.4,23.1 44.3,42 69,50.2 23.8,8 39.8,9.5 92.6,8.6 21.5,-0.3 60.6,-0.6 87,-0.7 57.5,0 64,-0.5 72.7,-5.1 6.8,-3.6 9.5,-6.8 12.9,-15.6 3.3,-8.3 3.4,-25.9 0.2,-31.8 -2.8,-5.3 -7.2,-8.9 -15.3,-12.8 l -6.5,-3.1 h -97.5 c -87.3,0 -98.3,-0.2 -105,-1.7 -21.3,-4.7 -44.9,-21.8 -56,-40.7 -9.2,-15.5 -13.3,-33.8 -11,-49.3 2.6,-17.7 6.8,-26.5 18.4,-38.3 7.2,-7.3 14.3,-12 24.6,-16.2 14.4,-6 18.4,-6.3 79.5,-6.3 33.9,0 56.4,0.4 58,1 6.1,2.3 4.3,5.4 -15.4,25.9 -16.3,17 -21.2,23.2 -25.4,32.1 -2.6,5.4 -3.1,7.7 -3.2,14 0,6.4 0.4,8.2 2.7,12.1 3.6,6.2 7.7,9.4 14.2,11.5 5.2,1.6 5.6,1.6 12.5,-0.5 7.9,-2.4 11.4,-5.1 28.1,-22.1 20.2,-20.4 62.6,-61.5 75.3,-72.9 16.1,-14.4 19.1,-18.9 19.1,-28.6 0,-10.8 -2,-13.4 -36.3,-47.5 -16.9,-16.8 -38.8,-39.3 -48.7,-50 -24.1,-26.1 -31.3,-33.2000001 -36,-35.5000001 -4.9,-2.4 -15.8,-3 -19.9,-1.2 z"
     id="path2"
     style="fill:#000000;stroke:none;stroke-width:0.1" />
</svg>
